<svg id="visual" viewBox="0 0 900 600" width="900" height="600" xmlns="http://www.w3.org/2000/svg" xmlns:xlink="http://www.w3.org/1999/xlink" version="1.1"><rect width="900" height="600" fill="#41464b"></rect><g><g transform="translate(726 70)"><path d="M103.2 -28.7C116.9 8.8 99.7 61.1 63 88.1C26.3 115.2 -29.9 116.8 -65.1 91C-100.2 65.1 -114.4 11.7 -100 -26.7C-85.7 -65 -42.8 -88.2 0.9 -88.5C44.7 -88.8 89.5 -66.2 103.2 -28.7Z" stroke="#7C5395" fill="none" stroke-width="20"></path></g><g transform="translate(769 585)"><path d="M63.4 -22.1C71.2 3.4 59 34 37.5 49C16 64 -14.8 63.4 -37.7 47.8C-60.5 32.2 -75.2 1.5 -67.6 -23.8C-60 -49.1 -30 -68.9 -1.1 -68.6C27.8 -68.2 55.6 -47.7 63.4 -22.1Z" stroke="#7C5395" fill="none" stroke-width="20"></path></g><g transform="translate(163 422)"><path d="M42.6 -15.2C48.1 3.2 40.7 24.5 25.3 35.8C10 47.2 -13.2 48.7 -29.5 37.6C-45.9 26.4 -55.3 2.7 -49.2 -16.4C-43.1 -35.6 -21.6 -50.2 -1.5 -49.7C18.5 -49.2 37.1 -33.6 42.6 -15.2Z" stroke="#7C5395" fill="none" stroke-width="20"></path></g></g></svg>