<svg id="visual" viewBox="0 0 900 600" width="900" height="600" xmlns="http://www.w3.org/2000/svg" xmlns:xlink="http://www.w3.org/1999/xlink" version="1.1"><rect x="0" y="0" width="900" height="600" fill="#41464b"></rect><path d="M0 425L21.5 414.8C43 404.7 86 384.3 128.8 384C171.7 383.7 214.3 403.3 257.2 412.5C300 421.7 343 420.3 385.8 421C428.7 421.7 471.3 424.3 514.2 419C557 413.7 600 400.3 642.8 399C685.7 397.7 728.3 408.3 771.2 417.5C814 426.7 857 434.3 878.5 438.2L900 442L900 601L878.5 601C857 601 814 601 771.2 601C728.3 601 685.7 601 642.8 601C600 601 557 601 514.2 601C471.3 601 428.7 601 385.8 601C343 601 300 601 257.2 601C214.3 601 171.7 601 128.8 601C86 601 43 601 21.5 601L0 601Z" fill="#7c5395"></path><path d="M0 395L21.5 405.2C43 415.3 86 435.7 128.8 447.8C171.7 460 214.3 464 257.2 457.2C300 450.3 343 432.7 385.8 421.2C428.7 409.7 471.3 404.3 514.2 410.5C557 416.7 600 434.3 642.8 442.8C685.7 451.3 728.3 450.7 771.2 450.8C814 451 857 452 878.5 452.5L900 453L900 601L878.5 601C857 601 814 601 771.2 601C728.3 601 685.7 601 642.8 601C600 601 557 601 514.2 601C471.3 601 428.7 601 385.8 601C343 601 300 601 257.2 601C214.3 601 171.7 601 128.8 601C86 601 43 601 21.5 601L0 601Z" fill="#6c4387"></path><path d="M0 479L21.5 479.2C43 479.3 86 479.7 128.8 472.8C171.7 466 214.3 452 257.2 448.5C300 445 343 452 385.8 461.8C428.7 471.7 471.3 484.3 514.2 489C557 493.7 600 490.3 642.8 481.2C685.7 472 728.3 457 771.2 459C814 461 857 480 878.5 489.5L900 499L900 601L878.5 601C857 601 814 601 771.2 601C728.3 601 685.7 601 642.8 601C600 601 557 601 514.2 601C471.3 601 428.7 601 385.8 601C343 601 300 601 257.2 601C214.3 601 171.7 601 128.8 601C86 601 43 601 21.5 601L0 601Z" fill="#5c337a"></path><path d="M0 484L21.5 488.7C43 493.3 86 502.7 128.8 506.3C171.7 510 214.3 508 257.2 511.8C300 515.7 343 525.3 385.8 528.7C428.7 532 471.3 529 514.2 521.3C557 513.7 600 501.3 642.8 495.5C685.7 489.7 728.3 490.3 771.2 498.5C814 506.7 857 522.3 878.5 530.2L900 538L900 601L878.5 601C857 601 814 601 771.2 601C728.3 601 685.7 601 642.8 601C600 601 557 601 514.2 601C471.3 601 428.7 601 385.8 601C343 601 300 601 257.2 601C214.3 601 171.7 601 128.8 601C86 601 43 601 21.5 601L0 601Z" fill="#4c246d"></path><path d="M0 534L21.5 539.7C43 545.3 86 556.7 128.8 560.3C171.7 564 214.3 560 257.2 553.5C300 547 343 538 385.8 539.5C428.7 541 471.3 553 514.2 560.3C557 567.7 600 570.3 642.8 569.2C685.7 568 728.3 563 771.2 560.3C814 557.7 857 557.3 878.5 557.2L900 557L900 601L878.5 601C857 601 814 601 771.2 601C728.3 601 685.7 601 642.8 601C600 601 557 601 514.2 601C471.3 601 428.7 601 385.8 601C343 601 300 601 257.2 601C214.3 601 171.7 601 128.8 601C86 601 43 601 21.5 601L0 601Z" fill="#3c1460"></path></svg>